<svg xmlns="http://www.w3.org/2000/svg" xmlns:xlink="http://www.w3.org/1999/xlink" width="218pt" height="279pt" viewBox="0.00 0.00 217.84 278.80">
<g id="graph0" class="graph" transform="scale(1 1) rotate(0) translate(4 274.8)">
<title>CFG</title>
<polygon fill="white" stroke="none" points="-4,4 -4,-274.8 213.84,-274.8 213.84,4 -4,4"/>
<!-- Start -->
<g id="node1" class="node">
<title>Start</title>
<polygon fill="none" stroke="black" points="129.76,-270.8 75.76,-270.8 75.76,-234.8 129.76,-234.8 129.76,-270.8"/>
<text text-anchor="middle" x="102.76" y="-248.6" font-family="Times,serif" font-size="14.00">Start</text>
</g>
<!-- Condition -->
<g id="node2" class="node">
<title>Condition</title>
<polygon fill="none" stroke="black" points="131.87,-197.8 73.65,-197.8 73.65,-161.8 131.87,-161.8 131.87,-197.8"/>
<text text-anchor="middle" x="102.76" y="-175.6" font-family="Times,serif" font-size="14.00">a == 1?</text>
</g>
<!-- Start&#45;&gt;Condition -->
<g id="edge1" class="edge">
<title>Start-&gt;Condition</title>
<path fill="none" stroke="black" d="M102.76,-234.61C102.76,-227.03 102.76,-217.9 102.76,-209.34"/>
<polygon fill="black" stroke="black" points="106.26,-209.34 102.76,-199.34 99.26,-209.34 106.26,-209.34"/>
</g>
<!-- TrueBranch -->
<g id="node3" class="node">
<title>TrueBranch</title>
<polygon fill="none" stroke="black" points="93.51,-109 0,-109 0,-73 93.51,-73 93.51,-109"/>
<text text-anchor="middle" x="46.76" y="-86.8" font-family="Times,serif" font-size="14.00">printf("true");</text>
</g>
<!-- Condition&#45;&gt;TrueBranch -->
<g id="edge2" class="edge">
<title>Condition-&gt;TrueBranch</title>
<path fill="none" stroke="black" d="M91.69,-161.65C83.84,-149.49 73.15,-132.91 64.17,-118.98"/>
<polygon fill="black" stroke="black" points="67.17,-117.19 58.81,-110.68 61.29,-120.98 67.17,-117.19"/>
<text text-anchor="middle" x="90.65" y="-131.2" font-family="Times,serif" font-size="14.00">true</text>
</g>
<!-- FalseBranch -->
<g id="node4" class="node">
<title>FalseBranch</title>
<polygon fill="none" stroke="black" points="209.84,-109 111.67,-109 111.67,-73 209.84,-73 209.84,-109"/>
<text text-anchor="middle" x="160.76" y="-86.8" font-family="Times,serif" font-size="14.00">printf("false");</text>
</g>
<!-- Condition&#45;&gt;FalseBranch -->
<g id="edge3" class="edge">
<title>Condition-&gt;FalseBranch</title>
<path fill="none" stroke="black" d="M114.22,-161.65C122.42,-149.37 133.63,-132.59 143,-118.58"/>
<polygon fill="black" stroke="black" points="145.64,-120.93 148.28,-110.67 139.82,-117.04 145.64,-120.93"/>
<text text-anchor="middle" x="150.17" y="-131.2" font-family="Times,serif" font-size="14.00">false</text>
</g>
<!-- End -->
<g id="node5" class="node">
<title>End</title>
<polygon fill="none" stroke="black" points="129.76,-36 75.76,-36 75.76,0 129.76,0 129.76,-36"/>
<text text-anchor="middle" x="102.76" y="-13.8" font-family="Times,serif" font-size="14.00">End</text>
</g>
<!-- TrueBranch&#45;&gt;End -->
<g id="edge4" class="edge">
<title>TrueBranch-&gt;End</title>
<path fill="none" stroke="black" d="M60.31,-72.81C66.92,-64.44 75,-54.2 82.33,-44.9"/>
<polygon fill="black" stroke="black" points="84.94,-47.24 88.39,-37.22 79.45,-42.9 84.94,-47.24"/>
</g>
<!-- FalseBranch&#45;&gt;End -->
<g id="edge5" class="edge">
<title>FalseBranch-&gt;End</title>
<path fill="none" stroke="black" d="M146.72,-72.81C139.88,-64.44 131.51,-54.2 123.92,-44.9"/>
<polygon fill="black" stroke="black" points="126.66,-42.73 117.62,-37.2 121.24,-47.16 126.66,-42.73"/>
</g>
</g>
</svg>